<mxfile host="app.diagrams.net" modified="2022-10-31T10:28:12.358Z" agent="5.0 (Windows NT 10.0; Win64; x64) AppleWebKit/537.36 (KHTML, like Gecko) Chrome/106.0.0.0 Safari/537.36 Edg/106.0.1370.34" etag="yCt6SPl6zvDe_1Tkvk4s" version="20.5.1" type="github">
  <diagram name="Page-1" id="97916047-d0de-89f5-080d-49f4d83e522f">
    <mxGraphModel dx="1804" dy="995" grid="1" gridSize="10" guides="1" tooltips="1" connect="1" arrows="1" fold="1" page="1" pageScale="1.5" pageWidth="1169" pageHeight="827" background="none" math="0" shadow="0">
      <root>
        <mxCell id="0" />
        <mxCell id="1" parent="0" />
        <mxCell id="8OicORqrsj6ARIu7jHRP-61" style="edgeStyle=orthogonalEdgeStyle;rounded=0;orthogonalLoop=1;jettySize=auto;html=1;exitX=1;exitY=0.5;exitDx=0;exitDy=0;entryX=0;entryY=0.5;entryDx=0;entryDy=0;fontSize=46;" edge="1" parent="1" source="8" target="13">
          <mxGeometry relative="1" as="geometry" />
        </mxCell>
        <mxCell id="8OicORqrsj6ARIu7jHRP-62" style="edgeStyle=orthogonalEdgeStyle;rounded=0;orthogonalLoop=1;jettySize=auto;html=1;exitX=1;exitY=0.5;exitDx=0;exitDy=0;entryX=0;entryY=0.5;entryDx=0;entryDy=0;fontSize=46;" edge="1" parent="1" source="8" target="14">
          <mxGeometry relative="1" as="geometry" />
        </mxCell>
        <mxCell id="8OicORqrsj6ARIu7jHRP-63" style="edgeStyle=orthogonalEdgeStyle;rounded=0;orthogonalLoop=1;jettySize=auto;html=1;entryX=0;entryY=0.75;entryDx=0;entryDy=0;fontSize=46;" edge="1" parent="1" source="8" target="15">
          <mxGeometry relative="1" as="geometry" />
        </mxCell>
        <mxCell id="8OicORqrsj6ARIu7jHRP-64" style="edgeStyle=orthogonalEdgeStyle;rounded=0;orthogonalLoop=1;jettySize=auto;html=1;entryX=0;entryY=0.5;entryDx=0;entryDy=0;fontSize=46;" edge="1" parent="1" source="8" target="16">
          <mxGeometry relative="1" as="geometry" />
        </mxCell>
        <mxCell id="8" value="System Software" style="rounded=1;fillColor=#f8cecc;strokeColor=#b85450;shadow=1;fontStyle=1;fontSize=14;" parent="1" vertex="1">
          <mxGeometry x="240" y="640" width="200" height="60" as="geometry" />
        </mxCell>
        <mxCell id="8OicORqrsj6ARIu7jHRP-65" style="edgeStyle=orthogonalEdgeStyle;rounded=0;orthogonalLoop=1;jettySize=auto;html=1;entryX=0;entryY=0.5;entryDx=0;entryDy=0;fontSize=46;" edge="1" parent="1" source="12" target="18">
          <mxGeometry relative="1" as="geometry" />
        </mxCell>
        <mxCell id="8OicORqrsj6ARIu7jHRP-66" style="edgeStyle=orthogonalEdgeStyle;rounded=0;orthogonalLoop=1;jettySize=auto;html=1;entryX=0;entryY=0.5;entryDx=0;entryDy=0;fontSize=46;" edge="1" parent="1" source="12" target="19">
          <mxGeometry relative="1" as="geometry" />
        </mxCell>
        <mxCell id="12" value="Application Software" style="rounded=1;fillColor=#dae8fc;strokeColor=#6c8ebf;shadow=1;fontStyle=1;fontSize=14;" parent="1" vertex="1">
          <mxGeometry x="240" y="940" width="200" height="60" as="geometry" />
        </mxCell>
        <mxCell id="13" value="Operating System" style="rounded=1;fillColor=#e1d5e7;strokeColor=#9673a6;shadow=1;fontStyle=1;fontSize=14;" parent="1" vertex="1">
          <mxGeometry x="552" y="520" width="200" height="60" as="geometry" />
        </mxCell>
        <mxCell id="14" value="Utility Program" style="rounded=1;fillColor=#e1d5e7;strokeColor=#9673a6;shadow=1;fontStyle=1;fontSize=14;" parent="1" vertex="1">
          <mxGeometry x="552" y="600" width="200" height="60" as="geometry" />
        </mxCell>
        <mxCell id="8OicORqrsj6ARIu7jHRP-68" style="edgeStyle=orthogonalEdgeStyle;rounded=0;orthogonalLoop=1;jettySize=auto;html=1;entryX=0;entryY=0.5;entryDx=0;entryDy=0;fontSize=46;" edge="1" parent="1" source="15" target="23">
          <mxGeometry relative="1" as="geometry" />
        </mxCell>
        <mxCell id="8OicORqrsj6ARIu7jHRP-69" style="edgeStyle=orthogonalEdgeStyle;rounded=0;orthogonalLoop=1;jettySize=auto;html=1;entryX=0;entryY=0.5;entryDx=0;entryDy=0;fontSize=46;" edge="1" parent="1" source="15" target="24">
          <mxGeometry relative="1" as="geometry" />
        </mxCell>
        <mxCell id="8OicORqrsj6ARIu7jHRP-70" style="edgeStyle=orthogonalEdgeStyle;rounded=0;orthogonalLoop=1;jettySize=auto;html=1;entryX=0;entryY=0.5;entryDx=0;entryDy=0;fontSize=46;" edge="1" parent="1" source="15" target="25">
          <mxGeometry relative="1" as="geometry" />
        </mxCell>
        <mxCell id="15" value="Language Translators" style="rounded=1;fillColor=#e1d5e7;strokeColor=#9673a6;shadow=1;fontStyle=1;fontSize=14;" parent="1" vertex="1">
          <mxGeometry x="552" y="680" width="200" height="60" as="geometry" />
        </mxCell>
        <mxCell id="16" value="Device Drivers" style="rounded=1;fillColor=#e1d5e7;strokeColor=#9673a6;shadow=1;fontStyle=1;fontSize=14;" parent="1" vertex="1">
          <mxGeometry x="552" y="760" width="200" height="60" as="geometry" />
        </mxCell>
        <mxCell id="18" value="General Purpose" style="rounded=1;fillColor=#e3c800;strokeColor=#B09500;shadow=1;fontStyle=1;fontColor=#000000;fontSize=14;" parent="1" vertex="1">
          <mxGeometry x="560" y="900" width="200" height="60" as="geometry" />
        </mxCell>
        <mxCell id="19" value="Specific Purpose" style="rounded=1;fillColor=#e3c800;strokeColor=#B09500;shadow=1;fontStyle=1;fontColor=#000000;fontSize=14;" parent="1" vertex="1">
          <mxGeometry x="560" y="1030" width="200" height="60" as="geometry" />
        </mxCell>
        <mxCell id="23" value="Assembler" style="rounded=1;fillColor=#647687;strokeColor=#314354;shadow=1;fontStyle=1;fontColor=#ffffff;fontSize=14;" parent="1" vertex="1">
          <mxGeometry x="860" y="590" width="200" height="60" as="geometry" />
        </mxCell>
        <mxCell id="24" value="Compiler" style="rounded=1;fillColor=#647687;strokeColor=#314354;shadow=1;fontStyle=1;fontColor=#ffffff;fontSize=14;" parent="1" vertex="1">
          <mxGeometry x="860" y="680" width="200" height="60" as="geometry" />
        </mxCell>
        <mxCell id="25" value="Interpreter" style="rounded=1;fillColor=#647687;strokeColor=#314354;shadow=1;fontStyle=1;fontColor=#ffffff;fontSize=14;" parent="1" vertex="1">
          <mxGeometry x="860" y="770" width="200" height="60" as="geometry" />
        </mxCell>
        <mxCell id="8OicORqrsj6ARIu7jHRP-59" style="edgeStyle=orthogonalEdgeStyle;rounded=0;orthogonalLoop=1;jettySize=auto;html=1;entryX=0;entryY=0.5;entryDx=0;entryDy=0;fontSize=46;" edge="1" parent="1" source="8OicORqrsj6ARIu7jHRP-56" target="8">
          <mxGeometry relative="1" as="geometry" />
        </mxCell>
        <mxCell id="8OicORqrsj6ARIu7jHRP-60" style="edgeStyle=orthogonalEdgeStyle;rounded=0;orthogonalLoop=1;jettySize=auto;html=1;entryX=0;entryY=0.5;entryDx=0;entryDy=0;fontSize=46;" edge="1" parent="1" source="8OicORqrsj6ARIu7jHRP-56" target="12">
          <mxGeometry relative="1" as="geometry" />
        </mxCell>
        <mxCell id="8OicORqrsj6ARIu7jHRP-56" value="&lt;font style=&quot;font-size: 46px;&quot;&gt;Types Of Softwares&lt;/font&gt;" style="rounded=1;whiteSpace=wrap;html=1;rotation=-90;direction=east;fillColor=#d5e8d4;strokeColor=#82b366;" vertex="1" parent="1">
          <mxGeometry x="-110" y="780" width="450" height="60" as="geometry" />
        </mxCell>
      </root>
    </mxGraphModel>
  </diagram>
</mxfile>
